<?xml version="1.0" encoding="utf-8"?>
<!-- Generator: Adobe Illustrator 21.1.0, SVG Export Plug-In . SVG Version: 6.00 Build 0)  -->
<svg version="1.1" id="Capa_1" opacity="0.5" xmlns="http://www.w3.org/2000/svg" xmlns:xlink="http://www.w3.org/1999/xlink"
	 x="0px" y="0px" viewBox="0 0 512 512" style="enable-background:new 0 0 512 512;" xml:space="preserve">
<style type="text/css">
	.st0{fill:#050505;}
</style>
<g>
	<g>
		<path class="st0" d="M492.4,151.7c-21.9,7.1-45.5,9-69.1,5.4c-9.6-1.5-19.5-2.3-29.4-2.3c-5.7,0-11.5,0.6-17.4,1.8
			c-14.3,2.9-28.2,9.4-40.4,18.9l-73.9,58c-3.6,2.8-8.7,2.8-12.3,0l-73.9-58c-12.2-9.5-26.1-16.1-40.4-18.9
			c-5.9-1.2-11.7-1.8-17.4-1.8c-10,0-19.9,0.8-29.4,2.3c-23.5,3.7-47.1,1.8-69.1-5.4c-9.7-3.2-19.6,4-19.6,14.2v113.6
			c0,29.7,33.1,57.2,80.6,66.9c19.4,4,39.7,2.2,58.8-5.1c4.6-1.8,9.3-3.2,14.1-4.4c26.7-6.4,55-0.6,77.7,16c0,0,0.1,0,0.1,0.1
			c14.8,10.8,34.7,10.8,49.5,0c23.4-17,52.6-22.7,80.1-15.5c4,1,7.9,2.3,11.8,3.8c19.1,7.3,39.4,9,58.8,5.1
			c47.4-9.7,80.6-37.2,80.6-66.9V165.9C512,155.7,502.1,148.5,492.4,151.7z M187,269.3c-10.8,6.9-28.7,15.9-49.1,15.9
			c-20.4,0-38.3-9-49.1-15.9c-5.6-3.6-5.6-11.8,0-15.4c10.8-6.9,28.7-15.9,49.1-15.9c20.4,0,38.3,9,49.1,15.9
			C192.6,257.5,192.6,265.7,187,269.3z M423.2,269.3c-10.8,6.9-28.7,15.9-49.1,15.9s-38.3-9-49.1-15.9c-5.6-3.6-5.6-11.8,0-15.4
			c10.8-6.9,28.7-15.9,49.1-15.9s38.3,9,49.1,15.9C428.9,257.5,428.9,265.7,423.2,269.3z"/>
	</g>
</g>
</svg>
