<?xml version="1.0" encoding="utf-8"?>
<!-- Generator: Adobe Illustrator 21.1.0, SVG Export Plug-In . SVG Version: 6.00 Build 0)  -->
<svg version="1.1" id="Capa_1" opacity="0.5" xmlns="http://www.w3.org/2000/svg" xmlns:xlink="http://www.w3.org/1999/xlink"
	 x="0px" y="0px" viewBox="0 0 428.2 428.2" style="enable-background:new 0 0 428.2 428.2;" xml:space="preserve">
<g>
	<g>
		<path d="M393.8,110.2c-0.5-11.3-0.5-22-0.5-32.8c0-8.7-6.7-15.4-15.4-15.4c-64,0-112.6-18.4-153.1-57.9c-6.1-5.6-15.4-5.6-21.5,0
			c-40.4,39.4-89.1,57.9-153.1,57.9c-8.7,0-15.4,6.7-15.4,15.4c0,10.8,0,21.5-0.5,32.8c-2,107.5-5.1,255,174.6,316.9l5.1,1l5.1-1
			C398.4,365.2,395.8,218.2,393.8,110.2z M201.8,259.2c-3.1,2.6-6.7,4.1-10.8,4.1h-0.5c-4.1,0-8.2-2-10.8-5.1l-47.6-52.7l23-20.5
			l37.4,41.5l82.9-78.8l21,22.5L201.8,259.2z"/>
	</g>
</g>
</svg>
